{"title":"DeadGirl 2008 DVDRip Xvid BigPerm LKRG","uid":5845154,"size":903145167,"categoryP":"video","categoryS":"movies","magnet":"?xt=urn:btih:24ecf06b7a3c8401d08fe3a413339853f2b90a42&amp;dn=DeadGirl+2008+DVDRip+Xvid+BigPerm+LKRG&amp;tr=udp%3A%2F%2Ftracker.openbittorrent.com%3A80&amp;tr=udp%3A%2F%2Fopen.demonii.com%3A1337&amp;tr=udp%3A%2F%2Ftracker.coppersurfer.tk%3A6969&amp;tr=udp%3A%2F%2Fexodus.desync.com%3A6969","seeders":0,"leechers":1,"uploader":"neon","files":-1,"time":1285143311,"description":"Two high school boys discover an imprisoned woman in an abandoned mental asylum who cannot die.\n\nEncoded By .......: BigPerm1828\nRuntime ..........: 1h 41mn\nIMDb URL .........: &lt;a href=&quot; http://www.imdb.com/title/tt0896534/&quot; rel=&quot;nofollow&quot; target=&quot;_NEW&quot;&gt; http://www.imdb.com/title/tt0896534/&lt;/a&gt;\nFile Size ........: 861 MB\nLanguage .........: English\n\nVideo\nID : 0\nFormat : MPEG-4 Visual\nFormat profile : Advanced Simple@L5\nFormat settings, BVOP : Yes\nFormat settings, QPel : No\nFormat settings, GMC : No warppoints\nFormat settings, Matrix : Default (H.263)\nCodec ID : XVID\nCodec ID/Hint : XviD\nDuration : 1h 41mn\nBit rate : 732 Kbps\nWidth : 704 pixels\nHeight : 396 pixels\nDisplay aspect ratio : 16:9\nFrame rate : 29.970 fps\nColor space : YUV\nChroma subsampling : 4:2:0\nBit depth : 8 bits\nScan type : Progressive\nBits/(Pixel*Frame) : 0.088\nStream size : 531 MiB (62%)\nWriting library : XviD 1.2.1 (UTC 2008-12-04)\n\nAudio\nID : 1\nFormat : AC-3\nFormat/Info : Audio Coding 3\nMode extension : CM (complete main)\nCodec ID : 2000\nDuration : 1h 41mn\nBit rate mode : Constant\nBit rate : 448 Kbps\nChannel(s) : 6 channels\nChannel positions : Front: L C R, Side: L R, LFE\nSampling rate : 48.0 KHz\nBit depth : 16 bits\nVideo delay : 33ms\nStream size : 325 MiB (38%)\nAlignment : Split accross interleaves\nInterleave, duration : 500 ms (14.98 video frames)\nInterleave, preload duration : 500 ms","torrent":{"xt":"urn:btih:24ecf06b7a3c8401d08fe3a413339853f2b90a42","amp;dn":"DeadGirl+2008+DVDRip+Xvid+BigPerm+LKRG","amp;tr":["udp%3A%2F%2Ftracker.openbittorrent.com%3A80","udp%3A%2F%2Fopen.demonii.com%3A1337","udp%3A%2F%2Ftracker.coppersurfer.tk%3A6969","udp%3A%2F%2Fexodus.desync.com%3A6969"],"infoHash":"24ecf06b7a3c8401d08fe3a413339853f2b90a42","infoHashBuffer":{"type":"Buffer","data":[36,236,240,107,122,60,132,1,208,143,227,164,19,51,152,83,242,185,10,66]},"announce":[],"urlList":[]}}